<mxfile host="app.diagrams.net" modified="2022-08-03T13:50:32.234Z" agent="5.0 (Windows NT 10.0; Win64; x64) AppleWebKit/537.36 (KHTML, like Gecko) Chrome/103.0.5060.114 Safari/537.36 Edg/103.0.1264.49" etag="uwlJIiWKDGSUZXiGbSsk" version="20.2.2" type="github">
  <diagram id="mUjfvoy8X4C5zdSmTZuY" name="Page-1">
    <mxGraphModel dx="1593" dy="944" grid="1" gridSize="10" guides="1" tooltips="1" connect="1" arrows="1" fold="1" page="1" pageScale="1" pageWidth="827" pageHeight="1169" math="0" shadow="0">
      <root>
        <mxCell id="0" />
        <mxCell id="1" parent="0" />
        <mxCell id="wvjeOror5f7C74c4cXRE-3" value="Pull request initiated" style="rounded=0;whiteSpace=wrap;html=1;" vertex="1" parent="1">
          <mxGeometry x="174" y="30" width="120" height="60" as="geometry" />
        </mxCell>
        <mxCell id="wvjeOror5f7C74c4cXRE-4" value="Changes requested?" style="rhombus;whiteSpace=wrap;html=1;" vertex="1" parent="1">
          <mxGeometry x="184" y="280" width="100" height="80" as="geometry" />
        </mxCell>
        <mxCell id="wvjeOror5f7C74c4cXRE-5" value="Reviewer assigned" style="rounded=0;whiteSpace=wrap;html=1;" vertex="1" parent="1">
          <mxGeometry x="174" y="150" width="120" height="60" as="geometry" />
        </mxCell>
        <mxCell id="wvjeOror5f7C74c4cXRE-7" value="No" style="endArrow=classic;html=1;rounded=0;entryX=1;entryY=0.5;entryDx=0;entryDy=0;exitX=0;exitY=0.5;exitDx=0;exitDy=0;" edge="1" parent="1" source="wvjeOror5f7C74c4cXRE-4" target="wvjeOror5f7C74c4cXRE-72">
          <mxGeometry width="50" height="50" relative="1" as="geometry">
            <mxPoint x="220" y="320" as="sourcePoint" />
            <mxPoint x="138" y="320" as="targetPoint" />
          </mxGeometry>
        </mxCell>
        <mxCell id="wvjeOror5f7C74c4cXRE-8" value="" style="endArrow=classic;html=1;rounded=0;entryX=0.5;entryY=0;entryDx=0;entryDy=0;exitX=0.5;exitY=1;exitDx=0;exitDy=0;" edge="1" parent="1" source="wvjeOror5f7C74c4cXRE-5" target="wvjeOror5f7C74c4cXRE-4">
          <mxGeometry width="50" height="50" relative="1" as="geometry">
            <mxPoint x="214" y="400" as="sourcePoint" />
            <mxPoint x="264" y="350" as="targetPoint" />
          </mxGeometry>
        </mxCell>
        <mxCell id="wvjeOror5f7C74c4cXRE-9" value="" style="endArrow=classic;html=1;rounded=0;entryX=0.5;entryY=0;entryDx=0;entryDy=0;exitX=0.5;exitY=1;exitDx=0;exitDy=0;" edge="1" parent="1" source="wvjeOror5f7C74c4cXRE-3" target="wvjeOror5f7C74c4cXRE-5">
          <mxGeometry width="50" height="50" relative="1" as="geometry">
            <mxPoint x="214" y="400" as="sourcePoint" />
            <mxPoint x="264" y="350" as="targetPoint" />
          </mxGeometry>
        </mxCell>
        <mxCell id="wvjeOror5f7C74c4cXRE-45" value="No" style="edgeStyle=orthogonalEdgeStyle;rounded=0;orthogonalLoop=1;jettySize=auto;html=1;" edge="1" parent="1" source="wvjeOror5f7C74c4cXRE-10" target="wvjeOror5f7C74c4cXRE-44">
          <mxGeometry relative="1" as="geometry" />
        </mxCell>
        <mxCell id="wvjeOror5f7C74c4cXRE-55" value="Yes" style="edgeStyle=orthogonalEdgeStyle;rounded=0;orthogonalLoop=1;jettySize=auto;html=1;" edge="1" parent="1" source="wvjeOror5f7C74c4cXRE-10" target="wvjeOror5f7C74c4cXRE-19">
          <mxGeometry relative="1" as="geometry" />
        </mxCell>
        <mxCell id="wvjeOror5f7C74c4cXRE-10" value="Are changes Stylistic?" style="rhombus;whiteSpace=wrap;html=1;" vertex="1" parent="1">
          <mxGeometry x="326" y="280" width="120" height="80" as="geometry" />
        </mxCell>
        <mxCell id="wvjeOror5f7C74c4cXRE-15" value="Yes" style="endArrow=classic;html=1;rounded=0;exitX=1;exitY=0.5;exitDx=0;exitDy=0;entryX=0;entryY=0.5;entryDx=0;entryDy=0;" edge="1" parent="1" source="wvjeOror5f7C74c4cXRE-4" target="wvjeOror5f7C74c4cXRE-10">
          <mxGeometry width="50" height="50" relative="1" as="geometry">
            <mxPoint x="214" y="400" as="sourcePoint" />
            <mxPoint x="314" y="320" as="targetPoint" />
          </mxGeometry>
        </mxCell>
        <mxCell id="wvjeOror5f7C74c4cXRE-22" value="" style="edgeStyle=orthogonalEdgeStyle;rounded=0;orthogonalLoop=1;jettySize=auto;html=1;" edge="1" parent="1" source="wvjeOror5f7C74c4cXRE-19" target="wvjeOror5f7C74c4cXRE-21">
          <mxGeometry relative="1" as="geometry" />
        </mxCell>
        <mxCell id="wvjeOror5f7C74c4cXRE-19" value="Make suggestions" style="rounded=0;whiteSpace=wrap;html=1;" vertex="1" parent="1">
          <mxGeometry x="326" y="411" width="120" height="60" as="geometry" />
        </mxCell>
        <mxCell id="wvjeOror5f7C74c4cXRE-26" value="" style="edgeStyle=orthogonalEdgeStyle;rounded=0;orthogonalLoop=1;jettySize=auto;html=1;" edge="1" parent="1" source="wvjeOror5f7C74c4cXRE-21" target="wvjeOror5f7C74c4cXRE-25">
          <mxGeometry relative="1" as="geometry" />
        </mxCell>
        <mxCell id="wvjeOror5f7C74c4cXRE-21" value="Issue assignee implements or rejects" style="rounded=0;whiteSpace=wrap;html=1;" vertex="1" parent="1">
          <mxGeometry x="326" y="505" width="120" height="60" as="geometry" />
        </mxCell>
        <mxCell id="wvjeOror5f7C74c4cXRE-23" value="Pull request &lt;br&gt;merged" style="shape=parallelogram;perimeter=parallelogramPerimeter;whiteSpace=wrap;html=1;fixedSize=1;" vertex="1" parent="1">
          <mxGeometry x="326" y="699" width="120" height="60" as="geometry" />
        </mxCell>
        <mxCell id="wvjeOror5f7C74c4cXRE-27" value="" style="edgeStyle=orthogonalEdgeStyle;rounded=0;orthogonalLoop=1;jettySize=auto;html=1;" edge="1" parent="1" source="wvjeOror5f7C74c4cXRE-25" target="wvjeOror5f7C74c4cXRE-23">
          <mxGeometry relative="1" as="geometry" />
        </mxCell>
        <mxCell id="wvjeOror5f7C74c4cXRE-25" value="Issue assignee implements or rejects" style="rounded=0;whiteSpace=wrap;html=1;" vertex="1" parent="1">
          <mxGeometry x="326" y="599" width="120" height="60" as="geometry" />
        </mxCell>
        <mxCell id="wvjeOror5f7C74c4cXRE-28" value="Very Significant" style="swimlane;fontStyle=0;childLayout=stackLayout;horizontal=1;startSize=30;horizontalStack=0;resizeParent=1;resizeParentMax=0;resizeLast=0;collapsible=1;marginBottom=0;" vertex="1" parent="1">
          <mxGeometry x="680" y="30" width="140" height="120" as="geometry" />
        </mxCell>
        <mxCell id="wvjeOror5f7C74c4cXRE-29" value="Item 1" style="text;strokeColor=none;fillColor=none;align=left;verticalAlign=middle;spacingLeft=4;spacingRight=4;overflow=hidden;points=[[0,0.5],[1,0.5]];portConstraint=eastwest;rotatable=0;" vertex="1" parent="wvjeOror5f7C74c4cXRE-28">
          <mxGeometry y="30" width="140" height="30" as="geometry" />
        </mxCell>
        <mxCell id="wvjeOror5f7C74c4cXRE-30" value="Item 2" style="text;strokeColor=none;fillColor=none;align=left;verticalAlign=middle;spacingLeft=4;spacingRight=4;overflow=hidden;points=[[0,0.5],[1,0.5]];portConstraint=eastwest;rotatable=0;" vertex="1" parent="wvjeOror5f7C74c4cXRE-28">
          <mxGeometry y="60" width="140" height="30" as="geometry" />
        </mxCell>
        <mxCell id="wvjeOror5f7C74c4cXRE-31" value="Item 3" style="text;strokeColor=none;fillColor=none;align=left;verticalAlign=middle;spacingLeft=4;spacingRight=4;overflow=hidden;points=[[0,0.5],[1,0.5]];portConstraint=eastwest;rotatable=0;" vertex="1" parent="wvjeOror5f7C74c4cXRE-28">
          <mxGeometry y="90" width="140" height="30" as="geometry" />
        </mxCell>
        <mxCell id="wvjeOror5f7C74c4cXRE-32" value="Stylistic" style="swimlane;fontStyle=0;childLayout=stackLayout;horizontal=1;startSize=30;horizontalStack=0;resizeParent=1;resizeParentMax=0;resizeLast=0;collapsible=1;marginBottom=0;" vertex="1" parent="1">
          <mxGeometry x="360" y="30" width="140" height="120" as="geometry" />
        </mxCell>
        <mxCell id="wvjeOror5f7C74c4cXRE-33" value="Item 1" style="text;strokeColor=none;fillColor=none;align=left;verticalAlign=middle;spacingLeft=4;spacingRight=4;overflow=hidden;points=[[0,0.5],[1,0.5]];portConstraint=eastwest;rotatable=0;" vertex="1" parent="wvjeOror5f7C74c4cXRE-32">
          <mxGeometry y="30" width="140" height="30" as="geometry" />
        </mxCell>
        <mxCell id="wvjeOror5f7C74c4cXRE-34" value="Item 2" style="text;strokeColor=none;fillColor=none;align=left;verticalAlign=middle;spacingLeft=4;spacingRight=4;overflow=hidden;points=[[0,0.5],[1,0.5]];portConstraint=eastwest;rotatable=0;" vertex="1" parent="wvjeOror5f7C74c4cXRE-32">
          <mxGeometry y="60" width="140" height="30" as="geometry" />
        </mxCell>
        <mxCell id="wvjeOror5f7C74c4cXRE-35" value="Item 3" style="text;strokeColor=none;fillColor=none;align=left;verticalAlign=middle;spacingLeft=4;spacingRight=4;overflow=hidden;points=[[0,0.5],[1,0.5]];portConstraint=eastwest;rotatable=0;" vertex="1" parent="wvjeOror5f7C74c4cXRE-32">
          <mxGeometry y="90" width="140" height="30" as="geometry" />
        </mxCell>
        <mxCell id="wvjeOror5f7C74c4cXRE-36" value="Significant" style="swimlane;fontStyle=0;childLayout=stackLayout;horizontal=1;startSize=30;horizontalStack=0;resizeParent=1;resizeParentMax=0;resizeLast=0;collapsible=1;marginBottom=0;" vertex="1" parent="1">
          <mxGeometry x="520" y="30" width="140" height="120" as="geometry" />
        </mxCell>
        <mxCell id="wvjeOror5f7C74c4cXRE-37" value="Item 1" style="text;strokeColor=none;fillColor=none;align=left;verticalAlign=middle;spacingLeft=4;spacingRight=4;overflow=hidden;points=[[0,0.5],[1,0.5]];portConstraint=eastwest;rotatable=0;" vertex="1" parent="wvjeOror5f7C74c4cXRE-36">
          <mxGeometry y="30" width="140" height="30" as="geometry" />
        </mxCell>
        <mxCell id="wvjeOror5f7C74c4cXRE-38" value="Item 2" style="text;strokeColor=none;fillColor=none;align=left;verticalAlign=middle;spacingLeft=4;spacingRight=4;overflow=hidden;points=[[0,0.5],[1,0.5]];portConstraint=eastwest;rotatable=0;" vertex="1" parent="wvjeOror5f7C74c4cXRE-36">
          <mxGeometry y="60" width="140" height="30" as="geometry" />
        </mxCell>
        <mxCell id="wvjeOror5f7C74c4cXRE-39" value="Item 3" style="text;strokeColor=none;fillColor=none;align=left;verticalAlign=middle;spacingLeft=4;spacingRight=4;overflow=hidden;points=[[0,0.5],[1,0.5]];portConstraint=eastwest;rotatable=0;" vertex="1" parent="wvjeOror5f7C74c4cXRE-36">
          <mxGeometry y="90" width="140" height="30" as="geometry" />
        </mxCell>
        <mxCell id="wvjeOror5f7C74c4cXRE-53" value="Yes" style="edgeStyle=orthogonalEdgeStyle;rounded=0;orthogonalLoop=1;jettySize=auto;html=1;" edge="1" parent="1" source="wvjeOror5f7C74c4cXRE-44" target="wvjeOror5f7C74c4cXRE-47">
          <mxGeometry relative="1" as="geometry" />
        </mxCell>
        <mxCell id="wvjeOror5f7C74c4cXRE-70" value="" style="edgeStyle=orthogonalEdgeStyle;rounded=0;orthogonalLoop=1;jettySize=auto;html=1;" edge="1" parent="1" source="wvjeOror5f7C74c4cXRE-44">
          <mxGeometry relative="1" as="geometry">
            <mxPoint x="680" y="320" as="targetPoint" />
          </mxGeometry>
        </mxCell>
        <mxCell id="wvjeOror5f7C74c4cXRE-44" value="Are changes &lt;br&gt;significant?" style="rhombus;whiteSpace=wrap;html=1;" vertex="1" parent="1">
          <mxGeometry x="492" y="280" width="130" height="80" as="geometry" />
        </mxCell>
        <mxCell id="wvjeOror5f7C74c4cXRE-46" value="" style="edgeStyle=orthogonalEdgeStyle;rounded=0;orthogonalLoop=1;jettySize=auto;html=1;" edge="1" parent="1" source="wvjeOror5f7C74c4cXRE-47" target="wvjeOror5f7C74c4cXRE-49">
          <mxGeometry relative="1" as="geometry" />
        </mxCell>
        <mxCell id="wvjeOror5f7C74c4cXRE-47" value="Make suggestions" style="rounded=0;whiteSpace=wrap;html=1;" vertex="1" parent="1">
          <mxGeometry x="497" y="411" width="120" height="60" as="geometry" />
        </mxCell>
        <mxCell id="wvjeOror5f7C74c4cXRE-48" value="" style="edgeStyle=orthogonalEdgeStyle;rounded=0;orthogonalLoop=1;jettySize=auto;html=1;" edge="1" parent="1" source="wvjeOror5f7C74c4cXRE-49" target="wvjeOror5f7C74c4cXRE-52">
          <mxGeometry relative="1" as="geometry" />
        </mxCell>
        <mxCell id="wvjeOror5f7C74c4cXRE-49" value="Issue assignee implements or rejects" style="rounded=0;whiteSpace=wrap;html=1;" vertex="1" parent="1">
          <mxGeometry x="497" y="505" width="120" height="60" as="geometry" />
        </mxCell>
        <mxCell id="wvjeOror5f7C74c4cXRE-50" value="Pull request &lt;br&gt;merged" style="shape=parallelogram;perimeter=parallelogramPerimeter;whiteSpace=wrap;html=1;fixedSize=1;" vertex="1" parent="1">
          <mxGeometry x="497" y="778" width="120" height="60" as="geometry" />
        </mxCell>
        <mxCell id="wvjeOror5f7C74c4cXRE-57" value="" style="edgeStyle=orthogonalEdgeStyle;rounded=0;orthogonalLoop=1;jettySize=auto;html=1;" edge="1" parent="1" source="wvjeOror5f7C74c4cXRE-52" target="wvjeOror5f7C74c4cXRE-56">
          <mxGeometry relative="1" as="geometry" />
        </mxCell>
        <mxCell id="wvjeOror5f7C74c4cXRE-52" value="Issue assignee implements or rejects" style="rounded=0;whiteSpace=wrap;html=1;" vertex="1" parent="1">
          <mxGeometry x="497" y="599" width="120" height="60" as="geometry" />
        </mxCell>
        <mxCell id="wvjeOror5f7C74c4cXRE-58" value="" style="edgeStyle=orthogonalEdgeStyle;rounded=0;orthogonalLoop=1;jettySize=auto;html=1;" edge="1" parent="1" source="wvjeOror5f7C74c4cXRE-56" target="wvjeOror5f7C74c4cXRE-50">
          <mxGeometry relative="1" as="geometry" />
        </mxCell>
        <mxCell id="wvjeOror5f7C74c4cXRE-56" value="Second review requested" style="rounded=0;whiteSpace=wrap;html=1;" vertex="1" parent="1">
          <mxGeometry x="497" y="689" width="120" height="60" as="geometry" />
        </mxCell>
        <mxCell id="wvjeOror5f7C74c4cXRE-59" value="Yes" style="edgeStyle=orthogonalEdgeStyle;rounded=0;orthogonalLoop=1;jettySize=auto;html=1;exitX=0.5;exitY=1;exitDx=0;exitDy=0;" edge="1" parent="1" source="wvjeOror5f7C74c4cXRE-71" target="wvjeOror5f7C74c4cXRE-62">
          <mxGeometry relative="1" as="geometry">
            <mxPoint x="740" y="360" as="sourcePoint" />
          </mxGeometry>
        </mxCell>
        <mxCell id="wvjeOror5f7C74c4cXRE-61" value="" style="edgeStyle=orthogonalEdgeStyle;rounded=0;orthogonalLoop=1;jettySize=auto;html=1;" edge="1" parent="1" source="wvjeOror5f7C74c4cXRE-62" target="wvjeOror5f7C74c4cXRE-64">
          <mxGeometry relative="1" as="geometry" />
        </mxCell>
        <mxCell id="wvjeOror5f7C74c4cXRE-62" value="Make suggestions" style="rounded=0;whiteSpace=wrap;html=1;" vertex="1" parent="1">
          <mxGeometry x="680" y="411" width="120" height="60" as="geometry" />
        </mxCell>
        <mxCell id="wvjeOror5f7C74c4cXRE-63" value="" style="edgeStyle=orthogonalEdgeStyle;rounded=0;orthogonalLoop=1;jettySize=auto;html=1;" edge="1" parent="1" source="wvjeOror5f7C74c4cXRE-64" target="wvjeOror5f7C74c4cXRE-67">
          <mxGeometry relative="1" as="geometry" />
        </mxCell>
        <mxCell id="wvjeOror5f7C74c4cXRE-64" value="Issue assignee implements or rejects" style="rounded=0;whiteSpace=wrap;html=1;" vertex="1" parent="1">
          <mxGeometry x="680" y="505" width="120" height="60" as="geometry" />
        </mxCell>
        <mxCell id="wvjeOror5f7C74c4cXRE-65" value="Pull request &lt;br&gt;merged" style="shape=parallelogram;perimeter=parallelogramPerimeter;whiteSpace=wrap;html=1;fixedSize=1;" vertex="1" parent="1">
          <mxGeometry x="680" y="778" width="120" height="60" as="geometry" />
        </mxCell>
        <mxCell id="wvjeOror5f7C74c4cXRE-66" value="" style="edgeStyle=orthogonalEdgeStyle;rounded=0;orthogonalLoop=1;jettySize=auto;html=1;" edge="1" parent="1" source="wvjeOror5f7C74c4cXRE-67" target="wvjeOror5f7C74c4cXRE-69">
          <mxGeometry relative="1" as="geometry" />
        </mxCell>
        <mxCell id="wvjeOror5f7C74c4cXRE-67" value="Issue assignee implements or rejects" style="rounded=0;whiteSpace=wrap;html=1;" vertex="1" parent="1">
          <mxGeometry x="680" y="599" width="120" height="60" as="geometry" />
        </mxCell>
        <mxCell id="wvjeOror5f7C74c4cXRE-68" value="" style="edgeStyle=orthogonalEdgeStyle;rounded=0;orthogonalLoop=1;jettySize=auto;html=1;" edge="1" parent="1" source="wvjeOror5f7C74c4cXRE-69" target="wvjeOror5f7C74c4cXRE-65">
          <mxGeometry relative="1" as="geometry" />
        </mxCell>
        <mxCell id="wvjeOror5f7C74c4cXRE-69" value="Second review requested" style="rounded=0;whiteSpace=wrap;html=1;" vertex="1" parent="1">
          <mxGeometry x="680" y="689" width="120" height="60" as="geometry" />
        </mxCell>
        <mxCell id="wvjeOror5f7C74c4cXRE-71" value="Changes are very significant" style="rounded=0;whiteSpace=wrap;html=1;" vertex="1" parent="1">
          <mxGeometry x="680" y="290" width="120" height="60" as="geometry" />
        </mxCell>
        <mxCell id="wvjeOror5f7C74c4cXRE-72" value="Pull request &lt;br&gt;merged" style="shape=parallelogram;perimeter=parallelogramPerimeter;whiteSpace=wrap;html=1;fixedSize=1;" vertex="1" parent="1">
          <mxGeometry x="20" y="290" width="120" height="60" as="geometry" />
        </mxCell>
      </root>
    </mxGraphModel>
  </diagram>
</mxfile>
